PathFileType	4	(X/Y/Z)	C:\Users\Basilio\Documents\Thesis Gigler\squatting_fais\c3dfiles\044\SLS_back_pre5\markers_experimental.trc
DataRate	CameraRate	NumFrames	NumMarkers	Units	OrigDataRate	OrigDataStartFrame	OrigNumFrames
200.000000	200.000000	4	63	mm	200.000000	348	1393
Frame#	Time	FHD			LBHD			RBHD			C7			T10			LSHO			LUUPA			LMUPA			LDUPA			LLEP			LMEP			LUL			LRFIN			RSHO			RUPA1			RMUPA			RDUPA			RLEP			RMEP			RUL			RUFIN			LASI			RASI			USACR			LSACR			RSACR			LTHI1			LTHI2			LTHI3			LTHI4			LLFC			LMFC			LTIB1			LTIB2			LTIB3			LTIB4			LLMAL			LMMAL			LHEE			LMT1			LMT2			LMT5			RTHI			RTHI2			RTHI3			RTHI4			RLFC			RMFC			RTIB1			RTIB2			RTIB3			RTIB4			RLMAL			RHEE			RMT1			RMT2			RMT5			RMMAL			CLAV			LRAD			RRAD			*61			*62			
		X1	Y1	Z1	X2	Y2	Z2	X3	Y3	Z3	X4	Y4	Z4	X5	Y5	Z5	X6	Y6	Z6	X7	Y7	Z7	X8	Y8	Z8	X9	Y9	Z9	X10	Y10	Z10	X11	Y11	Z11	X12	Y12	Z12	X13	Y13	Z13	X14	Y14	Z14	X15	Y15	Z15	X16	Y16	Z16	X17	Y17	Z17	X18	Y18	Z18	X19	Y19	Z19	X20	Y20	Z20	X21	Y21	Z21	X22	Y22	Z22	X23	Y23	Z23	X24	Y24	Z24	X25	Y25	Z25	X26	Y26	Z26	X27	Y27	Z27	X28	Y28	Z28	X29	Y29	Z29	X30	Y30	Z30	X31	Y31	Z31	X32	Y32	Z32	X33	Y33	Z33	X34	Y34	Z34	X35	Y35	Z35	X36	Y36	Z36	X37	Y37	Z37	X38	Y38	Z38	X39	Y39	Z39	X40	Y40	Z40	X41	Y41	Z41	X42	Y42	Z42	X43	Y43	Z43	X44	Y44	Z44	X45	Y45	Z45	X46	Y46	Z46	X47	Y47	Z47	X48	Y48	Z48	X49	Y49	Z49	X50	Y50	Z50	X51	Y51	Z51	X52	Y52	Z52	X53	Y53	Z53	X54	Y54	Z54	X55	Y55	Z55	X56	Y56	Z56	X57	Y57	Z57	X58	Y58	Z58	X59	Y59	Z59	X60	Y60	Z60	X61	Y61	Z61	X62	Y62	Z62	X63	Y63	Z63	

349	1.74	-168.6505279541016	1792.687255859375	-1040.991455078125	-300.9214477539063	1749.94482421875	-1114.655151367188	-339.4478759765626	1732.96484375	-953.7412719726565	-350.2313232421876	1560.274658203125	-1038.510864257813	-357.9815673828126	1258.931030273438	-1013.419311523438	-260.1180114746094	1578.830810546875	-1183.57177734375	-97.5288009643555	1562.825561523438	-1284.55322265625	-69.83526611328126	1575.411865234375	-1244.480102539063	-28.91823387145997	1562.260375976563	-1286.085083007813	29.7267189025879	1565.1875	-1278.307495117188	24.53018379211426	1488.283447265625	-1264.853271484375	285.7473144531251	1589.259155273438	-1156.833984375	300.5518798828126	1603.331420898438	-1052.818969726563	-258.0312500000001	1571.854125976563	-881.3392333984377	-103.9036102294922	1558.919555664063	-779.580749511719	-74.77656555175783	1571.8310546875	-819.422302246094	-34.26029205322266	1560.591186523438	-775.9355468750002	26.71140861511231	1565.551391601563	-785.5617675781252	27.10272026062012	1484.080688476563	-792.511657714844	284.1843261718751	1584.1943359375	-902.4479980468752	286.0305786132813	1569.296508789063	-1016.999450683594	-209.0527038574219	1050.688354492188	-1110.462646484375	-188.265625	1046.841918945313	-894.6215820312502	-361.4942626953126	1114.405029296875	-987.104431152344	-372.0655517578126	1080.702392578125	-1011.070922851563	-364.2813720703126	1086.190673828125	-954.6358642578127	-300.4841918945313	811.7523193359377	-1166.291748046875	-259.8002929687501	736.8286743164064	-1169.377685546875	-212.4149932861329	743.8685302734376	-1171.321044921875	-278.5303039550782	683.2351684570314	-1150.337768554688	-246.7489471435547	526.9766235351564	-1134.406127929688	-223.4762115478516	527.9323730468751	-1014.569030761719	-233.2522430419922	355.8547668457032	-1046.720458984375	-274.4789733886719	306.4614257812501	-1107.57861328125	-239.9922027587891	304.1947631835938	-1075.230346679688	-262.8263549804688	232.8089294433594	-1034.832397460938	-334.0127258300782	121.5958633422852	-1062.379638671875	-309.7690124511719	139.4934234619141	-981.8913574218752	-397.4308166503907	105.7631759643555	-1009.004211425781	-191.1250915527344	62.21470260620119	-986.3149414062502	-191.0794219970703	58.64777755737306	-1033.038330078125	-228.2349548339844	40.49861145019532	-1078.6962890625	-228.1791992187501	784.3912353515627	-785.0247192382815	-172.4341583251953	744.9876708984376	-779.9168090820315	-142.942367553711	753.4556274414064	-790.8599243164065	-175.4038848876953	659.8110351562501	-782.8170166015627	-172.009521484375	567.9476928710939	-782.0071411132815	-183.8329162597657	546.2033691406251	-895.3039550781252	-219.6606597900391	443.4800415039064	-784.1519775390627	-319.1849670410157	451.4749450683595	-739.1179199218751	-294.3711547851563	414.3061523437501	-748.3158569335939	-323.1335144042969	367.0898132324219	-765.8508300781251	-480.860076904297	297.5889892578126	-733.1791381835939	-548.9338378906251	300.8074645996094	-782.0404052734377	-386.3997497558595	164.9074096679688	-797.9478759765627	-385.5108032226564	159.0608367919922	-760.4062500000001	-429.9815979003907	164.0768280029297	-712.1729125976564	-457.0984191894532	288.8349304199219	-818.5396728515627	nan	nan	nan	nan	nan	nan	nan	nan	nan	nan	nan	nan	nan	nan	nan	
350	1.745	-168.1940612792969	1792.682495117188	-1041.720947265625	-300.6675109863282	1749.8955078125	-1115.400390625	-339.2636108398438	1732.824340820313	-954.4197387695315	-349.7626037597657	1559.58544921875	-1038.7958984375	-357.8636474609376	1258.895751953125	-1013.342529296875	-259.4618225097657	1578.622924804688	-1184.055786132813	-97.31142425537112	1562.583129882813	-1285.096435546875	-69.96555328369142	1575.230590820313	-1245.06103515625	-28.87485694885255	1561.130493164063	-1287.205200195313	29.32689285278321	1563.66015625	-1278.371704101563	24.80068969726563	1487.202270507813	-1265.5146484375	285.7294311523438	1588.905639648438	-1157.424072265625	300.8197021484376	1602.991455078125	-1053.42041015625	-257.9318542480469	1572.013427734375	-881.9967041015627	-103.7168273925782	1559.100830078125	-779.9033203125002	-74.5126419067383	1572.005615234375	-819.8236083984377	-33.95384597778321	1560.594360351563	-776.3812255859377	26.98291206359864	1565.715209960938	-785.9788818359377	27.18222427368165	1484.118408203125	-792.5767822265627	284.3792724609376	1584.081665039063	-902.8980712890627	286.1479797363282	1569.194213867188	-1017.38818359375	-209.2637634277344	1050.593139648438	-1110.3330078125	-188.2321166992188	1046.768676757813	-894.5655517578127	-361.3852233886719	1114.47412109375	-986.8638916015627	-372.0678710937501	1080.841064453125	-1010.794189453125	-364.2494506835938	1086.195434570313	-954.383239746094	-300.6043701171876	811.6494140625002	-1166.191650390625	-259.9411315917969	736.8262329101564	-1169.362182617188	-212.4424896240235	743.8028564453126	-1171.309936523438	-278.5484008789063	683.2115478515626	-1150.216552734375	-246.5967559814454	527.0053710937501	-1134.449951171875	-223.4258575439454	528.1589965820314	-1014.680969238281	-233.1858062744141	355.8409423828126	-1046.735961914063	-274.4285583496094	306.4623413085938	-1107.589599609375	-239.4684753417969	304.5325317382813	-1075.201782226563	-262.7765197753907	232.7979583740235	-1034.807983398438	-333.9364013671876	121.6425247192383	-1062.36328125	-309.6969909667969	139.5364227294922	-981.909851074219	-397.4569702148439	105.7143783569336	-1008.969604492188	-191.6515655517578	61.78589630126955	-986.1367797851565	-190.3186950683594	58.73364257812501	-1032.562744140625	-228.2209777832032	40.49386978149415	-1078.695434570313	-228.4215545654297	784.472106933594	-784.8189697265627	-172.5395050048828	745.0679321289064	-779.6374511718752	-143.0108642578125	753.3018188476564	-790.669860839844	-175.5037231445313	659.7553710937501	-782.461608886719	-172.4716796875	568.0952758789064	-781.7283935546877	-184.5329132080078	546.2574462890626	-894.8391113281252	-221.0034790039063	444.1213684082032	-784.174255371094	-320.7551574707032	453.2069091796876	-738.6097412109376	-296.1105346679688	415.366180419922	-747.9824218750001	-325.2586364746094	368.9857177734376	-765.2286376953126	-483.3050231933595	300.3485717773438	-732.4505004882814	-551.7847900390626	305.1378479003907	-781.447204589844	-390.5144042968751	167.1367492675782	-798.2282714843752	-389.7741088867189	161.0600280761719	-760.3045043945314	-434.3083801269532	166.3115844726563	-711.9736938476564	-460.0918884277345	291.7582092285157	-817.8663330078127	nan	nan	nan	nan	nan	nan	nan	nan	nan	nan	nan	nan	nan	nan	nan	
351	1.75	-168.0235595703125	1792.8935546875	-1042.43212890625	-300.4313049316407	1749.709594726563	-1116.068969726563	-339.1415710449219	1732.790771484375	-955.1096191406252	-349.6240539550782	1559.575439453125	-1039.247924804688	-357.7324829101563	1258.946899414063	-1013.277465820313	-259.0154724121094	1578.298217773438	-1184.608032226563	-97.35536193847659	1561.979370117188	-1285.641723632813	-69.82552337646486	1574.884887695313	-1245.711669921875	-29.50587463378907	1560.3427734375	-1286.794311523438	29.70662689208985	1562.681030273438	-1278.384643554688	24.82614707946778	1486.743896484375	-1266.032104492188	285.7844238281251	1588.511962890625	-1158.005493164063	301.0104064941407	1602.5849609375	-1054.100830078125	-257.5885925292969	1572.117065429688	-882.5279541015627	-103.6641387939453	1559.505615234375	-780.5117797851565	-74.09118652343751	1572.345947265625	-820.3392333984377	-33.98851776123048	1561.174560546875	-776.9904785156252	27.09026336669923	1565.94091796875	-786.3889770507815	27.57001495361329	1484.330322265625	-792.6960449218752	284.8937988281251	1583.744018554688	-903.2841796875002	286.4592895507813	1569.033569335938	-1017.901184082031	-209.3226318359376	1050.5263671875	-1110.227172851563	-188.1379852294922	1046.772338867188	-894.4895629882815	-361.3317871093751	1114.483520507813	-986.6555175781252	-372.1242065429688	1080.941162109375	-1010.471862792969	-364.1867065429688	1086.313842773438	-954.139831542969	-300.7969665527344	811.5591430664065	-1166.071044921875	-260.0168457031251	736.7482910156251	-1169.352783203125	-212.4028930664063	743.7363281250001	-1171.310913085938	-278.5744934082032	683.1057739257814	-1150.155639648438	-246.5001220703126	526.9751586914064	-1134.444702148438	-223.2938537597657	528.2039184570314	-1014.822021484375	-233.1607208251954	355.8013916015626	-1046.796875	-274.1936340332032	306.4793701171876	-1107.5546875	-239.4586944580079	304.5243835449219	-1075.223510742188	-262.7016601562501	232.7557678222657	-1034.831787109375	-334.0026550292969	121.620475769043	-1062.412231445313	-309.5981445312501	139.5225677490235	-981.9153442382815	-397.449920654297	105.8122177124024	-1008.981079101563	-191.660629272461	61.82221984863283	-986.1678466796877	-190.7906646728516	57.92822647094728	-1032.94482421875	-228.2640380859376	40.55171203613282	-1078.68359375	-228.4467010498047	784.5518188476565	-784.4556274414065	-172.7087097167969	745.0458984375001	-779.4121704101565	-143.2842559814453	753.2039184570314	-790.3101806640627	-175.9709167480469	659.8075561523439	-781.9033813476565	-172.8189086914063	567.9817504882814	-780.930603027344	-185.281478881836	546.5176391601564	-894.1921386718752	-222.4795532226563	444.5598754882814	-782.6280517578127	-322.0908813476563	454.5386047363282	-737.9681396484376	-297.7763977050782	416.722381591797	-747.4607543945314	-327.4360351562501	370.2298889160157	-764.3119506835939	-486.2296752929689	303.3163146972657	-731.5604858398439	-554.2935791015626	308.7644653320313	-780.7239379882815	-393.9367980957032	169.1731567382813	-797.9858398437502	-393.8420410156251	162.8451385498047	-759.9458007812501	-438.4471740722657	168.6007843017578	-711.7980957031251	-462.8864746093751	294.6699218750001	-817.0466308593752	nan	nan	nan	nan	nan	nan	nan	nan	nan	nan	nan	nan	nan	nan	nan	
352	1.755	-167.8316650390625	1792.715942382813	-1043.1328125	-300.1981811523438	1749.732055664063	-1116.80712890625	-339.0734252929688	1732.74951171875	-955.8474121093752	-349.4594116210938	1559.532836914063	-1039.759765625	-357.6383056640626	1258.999145507813	-1013.267822265625	-258.9572448730469	1577.909912109375	-1185.136352539063	-97.27143859863284	1561.571166992188	-1286.2578125	-69.67819976806642	1574.46875	-1246.232421875	-29.6154956817627	1560.403686523438	-1286.9853515625	29.75815963745118	1562.0859375	-1278.88427734375	24.87015914916993	1486.389404296875	-1266.458984375	285.9272460937501	1587.919555664063	-1158.529418945313	301.1078186035157	1602.879760742188	-1054.745361328125	-257.3152160644532	1572.195556640625	-883.0220336914065	-103.2909622192383	1559.447998046875	-781.145935058594	-73.80092620849611	1572.447387695313	-820.910339355469	-33.62070846557618	1561.389282226563	-777.449645996094	27.23955917358399	1566.145751953125	-786.8358154296877	27.79553794860841	1484.442626953125	-793.237243652344	285.1202087402344	1583.95068359375	-903.9531860351565	286.7443847656251	1568.834594726563	-1018.424194335938	-209.5168762207032	1050.394165039063	-1110.068359375	-188.0952453613282	1046.758911132813	-894.3923950195315	-361.2464904785157	1114.545776367188	-986.4055175781252	-372.2071533203126	1081.088012695313	-1010.217102050781	-364.1352844238282	1086.275024414063	-953.8784790039065	-300.8511657714844	811.4729614257815	-1165.950073242188	-260.1122131347657	736.7276611328126	-1169.301635742188	-212.3955078125001	743.6198120117189	-1171.256103515625	-278.6416320800782	683.0867919921876	-1150.054809570313	-246.3129272460938	526.9462280273439	-1134.439819335938	-222.709213256836	528.8450927734376	-1014.899169921875	-233.124740600586	355.7742614746094	-1046.748291015625	-274.1137695312501	306.5175476074219	-1107.603149414063	-239.3226013183594	304.2534484863282	-1075.097778320313	-262.6715087890626	232.8651733398438	-1034.819213867188	-333.9199523925782	121.5859298706055	-1062.44873046875	-309.5426940917969	139.5147552490235	-981.9358520507815	-397.2895812988282	105.5075302124024	-1008.762939453125	-191.7673645019532	62.2107276916504	-986.220397949219	-191.0956268310547	58.62062835693361	-1033.071655273438	-228.2634735107422	40.43741607666016	-1078.643798828125	-228.6998443603516	784.5305786132815	-784.1198730468752	-173.1326599121094	745.1498413085939	-779.042663574219	-143.5366516113282	753.1395263671876	-789.9241333007815	-176.2760620117188	659.5624389648439	-781.265808105469	-173.3499603271485	568.3769531250001	-780.7302856445315	-186.16455078125	546.6832885742189	-893.6978759765627	-224.0221099853516	445.1311340332032	-782.1176757812502	-323.4964294433594	456.2607421875001	-737.7356567382814	-299.5151367187501	417.8057556152345	-746.7477416992189	-330.0834655761719	371.9138793945313	-764.2121582031251	-488.9554138183595	305.9969482421876	-730.9562988281251	-556.8872680664064	312.4778137207032	-779.809020996094	-398.3011474609376	171.1687927246094	-797.8603515625002	-398.1858520507814	164.7976837158203	-759.8056030273439	-442.5369567871095	170.6552429199219	-711.5784301757814	-465.6573486328126	297.4230041503907	-816.5205078125002	nan	nan	nan	nan	nan	nan	nan	nan	nan	nan	nan	nan	nan	nan	nan	
